<?xml version="1.0" encoding="UTF-8"?>
<svg width="24px" height="24px" viewBox="0 0 24 24" version="1.1" xmlns="http://www.w3.org/2000/svg">
    <g stroke="none" stroke-width="1" fill="none" fill-rule="evenodd">
        <path d="M12,2.163c3.204,0 3.584,0.012 4.85,0.07 1.17,0.053 1.805,0.249 2.227,0.415 0.562,0.217 0.96,0.477 1.382,0.896 0.419,0.42 0.679,0.819 0.896,1.381 0.164,0.422 0.36,1.057 0.413,2.227 0.058,1.266 0.07,1.646 0.07,4.85 0,3.204 -0.012,3.584 -0.07,4.85 -0.053,1.17 -0.249,1.805 -0.415,2.227 -0.217,0.562 -0.477,0.96 -0.896,1.382 -0.42,0.419 -0.819,0.679 -1.381,0.896 -0.422,0.164 -1.057,0.36 -2.227,0.413 -1.266,0.058 -1.646,0.07 -4.85,0.07 -3.204,0 -3.584,-0.012 -4.85,-0.07 -1.17,-0.053 -1.805,-0.249 -2.227,-0.415 -0.562,-0.217 -0.96,-0.477 -1.382,-0.896 -0.419,-0.42 -0.679,-0.819 -0.896,-1.381 -0.164,-0.422 -0.36,-1.057 -0.413,-2.227 -0.058,-1.266 -0.07,-1.646 -0.07,-4.85 0,-3.204 0.012,-3.584 0.07,-4.85 0.053,-1.17 0.249,-1.805 0.415,-2.227 0.217,-0.562 0.477,-0.96 0.896,-1.382 0.42,-0.419 0.819,-0.679 1.381,-0.896 0.422,-0.164 1.057,-0.36 2.227,-0.413 1.266,-0.058 1.646,-0.07 4.85,-0.07zM12,0C8.741,0 8.333,0.014 7.053,0.072 5.775,0.132 4.905,0.333 4.14,0.63 3.354,0.935 2.67,1.34 1.988,2.022 1.306,2.704 0.901,3.388 0.596,4.174 0.299,4.939 0.098,5.809 0.038,7.087 0.014,8.367 0,8.775 0,12c0,3.259 0.014,3.667 0.072,4.947 0.06,1.278 0.261,2.148 0.558,2.913 0.305,0.786 0.71,1.47 1.392,2.152 0.682,0.682 1.366,1.087 2.152,1.392 0.765,0.297 1.635,0.499 2.913,0.558C8.333,23.986 8.741,24 12,24c3.259,0 3.668,-0.014 4.948,-0.072 1.278,-0.06 2.148,-0.261 2.913,-0.558 0.786,-0.305 1.47,-0.71 2.152,-1.392 0.682,-0.682 1.087,-1.366 1.392,-2.152 0.297,-0.765 0.499,-1.635 0.558,-2.913C23.986,15.668 24,15.259 24,12c0,-3.259 -0.014,-3.667 -0.072,-4.947 -0.06,-1.278 -0.261,-2.148 -0.558,-2.913 -0.305,-0.786 -0.71,-1.47 -1.392,-2.152 -0.682,-0.682 -1.366,-1.087 -2.152,-1.392 -0.765,-0.297 -1.635,-0.499 -2.913,-0.558C15.668,0.014 15.259,0 12,0z" fill="#FFFFFF"/>
        <path d="M12,5.838c-3.403,0 -6.162,2.759 -6.162,6.162 0,3.403 2.759,6.162 6.162,6.162 3.403,0 6.162,-2.759 6.162,-6.162 0,-3.403 -2.759,-6.162 -6.162,-6.162zM12,16c-2.209,0 -4,-1.791 -4,-4 0,-2.209 1.791,-4 4,-4 2.209,0 4,1.791 4,4 0,2.209 -1.791,4 -4,4z" fill="#FFFFFF"/>
        <circle fill="#FFFFFF" cx="18.406" cy="5.594" r="1.44"/>
    </g>
</svg> 